<svg width="1440" height="880" viewBox="0 0 1440 880" fill="none" xmlns="http://www.w3.org/2000/svg">
  <rect width="1440" height="880" rx="36" fill="#FBF6EC"/>
  <text x="98" y="112" fill="#7D2F16" font-family="Georgia, serif" font-size="46" font-weight="700">1주차 추천 읽기 순서</text>
  <text x="98" y="154" fill="#675C4B" font-family="Georgia, serif" font-size="24">배경을 먼저 이해하고, 공식 문서로 용어를 보정한 뒤, 실습과 예고편으로 넘어가는 흐름이 가장 안정적이다.</text>

  <rect x="110" y="284" width="230" height="120" rx="24" fill="#F8E0D4"/>
  <text x="146" y="356" fill="#5A2414" font-family="Georgia, serif" font-size="28" font-weight="700">1. 배경 이해</text>

  <rect x="404" y="284" width="230" height="120" rx="24" fill="#E2E9D5"/>
  <text x="432" y="356" fill="#38462B" font-family="Georgia, serif" font-size="28" font-weight="700">2. 개념 보정</text>

  <rect x="698" y="284" width="230" height="120" rx="24" fill="#E1E8EE"/>
  <text x="726" y="356" fill="#273C49" font-family="Georgia, serif" font-size="28" font-weight="700">3. 환경 준비</text>

  <rect x="992" y="284" width="230" height="120" rx="24" fill="#F4EAD3"/>
  <text x="1020" y="356" fill="#59461F" font-family="Georgia, serif" font-size="28" font-weight="700">4. 첫 앱 배포</text>

  <rect x="550" y="540" width="340" height="120" rx="24" fill="#2B2620"/>
  <text x="618" y="612" fill="#FAF4EA" font-family="Georgia, serif" font-size="28" font-weight="700">5. 예고편 복습</text>

  <path d="M340 344H404" stroke="#7D2F16" stroke-width="7" stroke-linecap="round"/>
  <path d="M404 344L372 322V366L404 344Z" fill="#7D2F16"/>
  <path d="M634 344H698" stroke="#7D2F16" stroke-width="7" stroke-linecap="round"/>
  <path d="M698 344L666 322V366L698 344Z" fill="#7D2F16"/>
  <path d="M928 344H992" stroke="#7D2F16" stroke-width="7" stroke-linecap="round"/>
  <path d="M992 344L960 322V366L992 344Z" fill="#7D2F16"/>
  <path d="M1107 404L755 528" stroke="#7D2F16" stroke-width="7" stroke-linecap="round"/>
  <path d="M755 528L776 496L790 536L755 528Z" fill="#7D2F16"/>
</svg>
