<svg width="1440" height="960" viewBox="0 0 1440 960" fill="none" xmlns="http://www.w3.org/2000/svg">
  <rect width="1440" height="960" rx="36" fill="#FBF6EC"/>
  <text x="92" y="112" fill="#7D2F16" font-family="Georgia, serif" font-size="46" font-weight="700">Istio 1주차 아키텍처 요약</text>
  <text x="92" y="154" fill="#675C4B" font-family="Georgia, serif" font-size="24">사용자는 리소스를 선언하고, Istiod는 이를 해석해 Envoy 프록시에 배포한다.</text>

  <rect x="92" y="228" width="1256" height="210" rx="28" fill="#FFFDF8" stroke="#D8CBB6" stroke-width="2"/>
  <text x="126" y="286" fill="#5A2414" font-family="Georgia, serif" font-size="34" font-weight="700">Control Plane</text>
  <rect x="126" y="318" width="1190" height="88" rx="20" fill="#F8E0D4"/>
  <text x="162" y="374" fill="#5A2414" font-family="Georgia, serif" font-size="30" font-weight="700">Istiod</text>
  <text x="322" y="374" fill="#5A2414" font-family="Georgia, serif" font-size="24">서비스 디스커버리 수집 / 정책 해석 / xDS 설정 생성 / 프록시 배포</text>

  <rect x="92" y="500" width="1256" height="340" rx="28" fill="#FFFDF8" stroke="#D8CBB6" stroke-width="2"/>
  <text x="126" y="558" fill="#38462B" font-family="Georgia, serif" font-size="34" font-weight="700">Data Plane</text>

  <rect x="126" y="598" width="352" height="180" rx="22" fill="#E2E9D5"/>
  <text x="154" y="650" fill="#38462B" font-family="Georgia, serif" font-size="28" font-weight="700">Workload A Pod</text>
  <rect x="154" y="678" width="130" height="62" rx="14" fill="#FFFFFF"/>
  <text x="178" y="717" fill="#2D271E" font-family="Georgia, serif" font-size="22">App A</text>
  <rect x="306" y="678" width="140" height="62" rx="14" fill="#DCE5F3"/>
  <text x="332" y="717" fill="#23384A" font-family="Georgia, serif" font-size="22">Envoy</text>

  <rect x="544" y="598" width="352" height="180" rx="22" fill="#E2E9D5"/>
  <text x="572" y="650" fill="#38462B" font-family="Georgia, serif" font-size="28" font-weight="700">Workload B Pod</text>
  <rect x="572" y="678" width="130" height="62" rx="14" fill="#FFFFFF"/>
  <text x="596" y="717" fill="#2D271E" font-family="Georgia, serif" font-size="22">App B</text>
  <rect x="724" y="678" width="140" height="62" rx="14" fill="#DCE5F3"/>
  <text x="750" y="717" fill="#23384A" font-family="Georgia, serif" font-size="22">Envoy</text>

  <rect x="962" y="598" width="352" height="180" rx="22" fill="#E2E9D5"/>
  <text x="990" y="650" fill="#38462B" font-family="Georgia, serif" font-size="28" font-weight="700">Ingress Gateway</text>
  <rect x="990" y="678" width="290" height="62" rx="14" fill="#DCE5F3"/>
  <text x="1020" y="717" fill="#23384A" font-family="Georgia, serif" font-size="22">Envoy Gateway Proxy</text>

  <path d="M724 406V548" stroke="#7D2F16" stroke-width="7" stroke-linecap="round"/>
  <path d="M724 548L702 518H746L724 548Z" fill="#7D2F16"/>
</svg>
